<?xml version="1.0"?>
<svg width="64" height="41.2" xmlns="http://www.w3.org/2000/svg" xmlns:svg="http://www.w3.org/2000/svg"  version="1.1" >

 <style type="text/css">.st0{fill:#1B76BC;}</style>
 <g class="layer">
  <title>Layer 1</title>
  <g id="svg_1">
   <path class="st0" d="m49.2,38.9l4.6,-9.6l8.2,7.2l1.8,-1.2l-8.1,-12.1l7.1,-3.6l-0.6,-1.5c0,0 -5.9,1.4 -7.7,1.9c0.9,-0.7 1.1,-2.3 1.1,-2.3c0,-0.5 -0.1,-0.9 -0.3,-1.3c0,-0.1 0,-0.1 -0.1,-0.1c0,-0.1 -0.1,-0.1 -0.1,-0.2c-0.1,-0.1 -0.2,-0.3 -0.3,-0.4c0,0 0,0 0,0c0,0 -0.1,-0.1 -0.1,-0.1c-0.1,-0.1 -0.1,-0.1 -0.2,-0.2c-0.3,-0.3 -0.6,-0.5 -1,-0.7c0,0 0,0 0,0c0,0 -0.1,0 -0.1,0c-0.2,-0.1 -0.4,-0.1 -0.7,-0.2c-0.1,0 -0.1,0 -0.2,0c0,0 -0.1,0 -0.1,0c-0.1,0 -0.1,0 -0.2,0c0,0 -0.1,0 -0.1,0c-0.1,0 -0.2,0 -0.3,0c0,0 0,0 0,0c-0.1,0 -0.2,0 -0.3,0.1c-1,0.2 -1.8,0.8 -2.3,1.6c0,0 0,0 0,0.1c-0.1,0.1 -0.1,0.3 -0.2,0.4c0,0 0,0.1 -0.1,0.2c0,0.1 -0.1,0.2 -0.1,0.3c0,0.1 0,0.1 0,0.2c0,0.1 0,0.2 0,0.3c0,0 0,0.1 0,0.1c0,0 0,0.5 0.1,0.7c0.3,1.2 1.2,2.1 2.4,2.4l-8.5,4.9c-1.8,-1.4 -4,-3.1 -5.9,-4.5c0.7,-0.3 1.3,-0.9 1.7,-1.6c0.9,2.1 3.6,1 3.6,1c-0.7,-2.3 -2.4,-2.2 -3.3,-1.9c0,-0.1 0,-0.3 0,-0.4c0,-1.8 -1.5,-3.2 -3.3,-3.2c-1.3,0 -2.4,0.7 -2.9,1.7c-1.3,-2.1 -3.7,-0.5 -3.7,-0.5c1,2 2.5,1.8 3.4,1.4c0,0.2 -0.1,0.4 -0.1,0.5c0,0.4 0.1,0.8 0.2,1.2l-1.5,-0.4l0,0c0,0 0,0 0,0l-6.6,-3.1l-0.9,1.8l7.8,4.8l-7.8,6.1l0,0l-0.1,0.1l2.7,1.1l-4.6,7.9l2,0.4l5.8,-7l3.8,1.5l0.9,6.2l-12.3,0l0,-0.1l-1.8,-0.3l1.5,-2.6l-2.4,-6.9l2.7,-0.3l-4.4,-15.2l5.3,3.8l1,-1.9c0,0 -7.6,-7.7 -8,-8c0.7,0.7 2.7,-0.5 3.5,-1.5c-1.2,-0.2 -1.6,-0.7 -1.7,-1.3c-0.3,-1.2 0.2,-4.2 -3.7,-4.6c-3.9,0.4 -3.4,3.3 -3.7,4.6c-0.1,0.6 -0.5,1 -1.7,1.3c0.7,1 2.1,1.3 3,1.7l-11.3,8.1l1,1.6l8.4,-3.8l-6.4,17l3.4,-0.3l-3,8.6l-1.1,0l0,2l64,0l0,-2l-17.1,0l0,0.1zm-43.1,0l4.4,-9.1l4.9,-0.3l4.4,9.4l-13.7,0zm29.9,0l0.4,-4.8l2.1,0.9l-2.6,-10.6l6.6,3.5l7.4,-2.8l-3,13.9l-10.9,0l0,-0.1z" id="svg_9"/>
   <polygon class="st0" id="svg_10" points="31.7,38.9 32.8,38.9 32.4,36.2  "/>
   <path class="st0" d="m27.4,16.3l-0.1,-0.3l0.8,-0.5c0.1,-0.1 1.2,-0.8 2.5,-0.8c0.4,0 1.1,0.1 1.7,0.5l0.4,-0.2c0.5,-0.4 1.1,-0.7 1.8,-0.8l1.5,-0.7l0,0.6c1.9,0.3 3.4,1.6 3.7,3.4c1,0 2.6,0.4 3.3,2.7l0.3,0.8l-0.8,0.4c-0.1,0 -0.9,0.4 -2,0.4c-0.6,0 -1.2,-0.1 -1.6,-0.4c0.3,0.3 0.7,0.5 1,0.8c1,0.7 1.9,1.5 2.8,2.2l2.7,-1.5l-0.9,-9.2l3.5,2.1c0,-0.1 0.1,-0.1 0.1,-0.2c0,0 0,-0.1 0.1,-0.1c0.5,-0.8 1.2,-1.5 2.1,-1.8l-8,-6.3c1.4,-0.6 2.4,-2 2.4,-3.5c0,-2.1 -1.8,-3.9 -4.1,-3.9c-2.2,0 -4.1,1.7 -4.1,3.9c0,1.5 0.9,2.8 2.2,3.4l-12.8,8.2l1.5,0.8z" id="svg_11"/>
   <polygon class="st0" id="svg_12" points="46.4,27.4 42.9,28.7 42.5,28.9 42.1,28.7 44.7,38.9 45.8,38.9 47.4,31.4  "/>
   <polygon class="st0" id="svg_13" points="38.5,30.6 39.4,27.3 37.5,26.3  "/>
  </g>
 </g>
</svg>